<?xml version="1.0" encoding="UTF-8"?>
<svg id="Layer_2" data-name="Layer 2" xmlns="http://www.w3.org/2000/svg" viewBox="0 0 379.24 329.11">
  <defs>
    <style>
      .cls-1 {
        fill: #1c1716;
      }

      .cls-2 {
        fill: #fff;
      }

      .cls-3 {
        fill: #eb842e;
      }
    </style>
  </defs>
  <g id="Layer_1-2" data-name="Layer 1">
    <g>
      <g>
        <path class="cls-1" d="M291.98,142.14c1.08-.76,3.21-3.15,3.43-3.24.46-.19.95.17,1.26.08.59-.16,2.07-1.89,2.92-1.24l3.03,12h1.13c-.01-2.16.51-4.05.37-6.27-.32-5.12-2.35-8.39-.55-13.87,1.2-3.65,9.06-14.41,12.15-16.73,1.38-1.04,2.56-1.42,3.99-.19.22.9-1.04.34-1.16,1.52-.14,1.37-1.09-.05-1.2.88,0,0,.49,1.02-.34,2.06-1.05,1.31-1.37,2.74-1.37,2.74-.36.04-1.25,2.75-1.32,3.45l-.37.82-.5,1.85.21,1.66.73,2.32c.06.85,1.4.64,1.52.76.78.78-1.17.61-.76,1.32.2.34.74.54,1.14.58l-1.52.38c-.29.27,1.04,2.37.76,2.66-.19.2-1.39-.45-1.14.56s1.93,3.3,2.38,4.84c.57,1.92.83,3.59.65,5.62-.26,2.98-1.86,5.56-4.18,7.42-4.42,3.55-9.89,2.77-15.12,4.27s-9.47,4.53-14.53,5.8c1.68-5.48,3.81-11.17,6.26-16.35.73-1.55,1.98-3.08,2.66-4.57.33-.73.54-1.29-.55-1.12ZM306.04,146.7c.2,1.96,1.33,4.81,2.85,6.1.7.59.36.1.57-.02,1.96-1.08,2.37-4.23,2.3-6.29-.05-1.51-1.75-8.65-2.51-9.65-.29-.38-.4-.5-.92-.4-1.16,3.88-2.72,5.93-2.28,10.26Z"/>
        <path class="cls-1" d="M329.22,131.88c.06-.2-.08-.69,0-.76.39-.3,2.14.52,2.28.38.11-.11-.18-1.19.62-1.48.85-.3,2.51.1,3.67-.13,2.22-.44,4.33-2.92,5.53-4.73.2-.3,2.01-4.74,2.73-3.92-1.28,6.45-3.4,13.48-4.13,20-.12,1.03-.42,3.23-.39,4.1.04,1.28,1.29,2.71.35,4.03-.45-.56-1.94-1.78-2.66-1.9,0-1.43-4.19-6.91-5.14-8.74-.78-1.5-1.18-2.61-1.7-4.19-.3-.89-.3-2.02-1.14-2.66Z"/>
        <path class="cls-2" d="M305.66,194.21c-.55.13-.9.05-1.52.38v-.38c.1-.05.44-.67,1.13-.95,1.89-.77,4.08-1.36,6.09-1.71-.05-.64-1.59-.7-2.05-.71-1.38-.03-3.92.21-5.36.34-1.31.12-2.7.53-3.99.75-.01-.26.99-1.08,1.06-1.1,2.6-.8,11.3-1.18,13.97-.83.8.11,1.01.43,2.95.55,8.45.53,16.97.81,24.72,4.85,4.18,2.18,13.05,9.45,17.53,9.45h7.6c.46,0,1.15-1.26.95.76-3.77.46-6.53,1.22-10.34.27-5.71-1.43-9.83-5.8-14.79-8.39-12.73-6.67-24.02-5.36-37.58-3.65"/>
        <path class="cls-2" d="M321.81,196.49c.1.03.74.56.38.76-.46.65-1.82.29-2.62.42-7.44,1.3-13.14,4.62-18.09,10.22,1.06-4.45,4.58-8.36,8.86-9.95.84-.31,4.77-1.45,5.39-1.45,1.5,0,4.92-.29,6.08,0Z"/>
        <path class="cls-2" d="M299.2,185.85c3.3-1.47,6.88-3.82,10.64-2.66-.15.76-.8.62-1.33.76-3.09.79-6.23,1.45-9.31,2.28v-.38Z"/>
        <path class="cls-1" d="M334.17,169.89c-.12-.04-.35-.47-.74-.58-2.44-.67-4.79-.42-7.24-.95.26-.78,1.5-.92,2.19-1.04,2.81-.47,7.31-.4,10.17-.1s5.05,2.67,6.81,4.98c1.45,1.91,2.66,4.38,2.88,6.81-.81.14-1.54-.3-2.28-.38-3.95-2.23-5.99-6.32-10.12-8.33-.66-.32-1.21-.25-1.66-.42Z"/>
        <path class="cls-2" d="M330.36,134.54c.53,1.58.92,2.69,1.7,4.19.95,1.82,5.14,7.3,5.14,8.74,0,.21-.6,2.6-.73,2.89-1.12,2.6-1.85-.89-2.29-1.2-.28-.2-1.4.71-2.32-.73-.35-.55-.31-1.22-.59-1.68-.56-.93-1.9-2.5-2.22-3.48-.45-1.37.38-5.59.56-7.4.07-.72-.46-1.54.75-1.33Z"/>
        <path class="cls-2" d="M334.17,169.89c.46.17,1,.09,1.66.42,4.13,2,6.17,6.1,10.12,8.33-1.52-.17-3.74-.36-5.32-.95-2.54-.94-4.43-4.41-6.08-6.48-.26-.33-2.44-1.11-.38-1.31Z"/>
        <path class="cls-2" d="M309.46,152.78c-1.01-1.81-.61-6.02-3.42-6.08-.44-4.33,1.13-6.38,2.28-10.26.52-.1.63.02.92.4.77,1,2.46,8.14,2.51,9.65.07,2.06-.34,5.21-2.3,6.29Z"/>
        <path class="cls-3" d="M309.46,152.78c-.22.12.13.61-.57.02-1.52-1.28-2.65-4.14-2.85-6.1,2.81.06,2.41,4.28,3.42,6.08Z"/>
        <g>
          <path class="cls-1" d="M375.59,194.97c1.12.78,2.81,1.04,3.53,2.77.24.57.08,2.88-.17,3.25-.19.29-5.6,2.3-6.39,2.54s-2.33.15-2.83.51c-.44.32-.02,1.4-.57,2.17-1.55,2.19-8.38,2.29-10.86,2.05-4.25-.41-10.74-4.93-15.14-6.52-3.68-1.34-13.39-3.19-17.19-2.98-10.65.58-18,10.04-20.13,19.77,1.22-.82,1.5-2.68,2.23-3.66,1.33-1.79,7.52-7.83,9.38-8.67.36-.16,1.33-.36,1.5-.2.3.28-2.32,4.61-2.56,5.6-1.73,7,3.51,14.44,8.65,18.72-4.48-.35-7.61-2.61-10.26-6.08-.56,6.91,2.84,13.35,3.03,20.14-3.02-2.35-4.11-6.21-6.45-9.12-.24,1.64-.24,3.41-.49,5.03-.23,1.49-1.39,8.2-1.99,9.03-.39.54-.74.41-1.32.38.74-2.85,1.07-5.62.75-8.54-.04-.4.26-1.28-.55-.95s-3.54,6.47-4.43,7.74c-.47.67-1.78,2.68-2.98,3.09-.02.43,7.07,2.84,8.04,3.28,7.08,3.21,14.36,7.44,21.28,11.02,6.11,3.16,9.08,6.15,11.35,13.05,1.82,5.52,2.78,16.95-4.17,19.04-.99.3-5.4-.1-5.64-.19-1.96-.76-4.15-1.35-5.79-2.98-4.42-4.39-3.36-11.47-8.54-16.06-4.31-3.82-19.9-6.99-25.86-7.59-4.34-.44-8.79.4-13.11-.38,0,0,9.56,6.31,10.64,7.03,5.88,3.85,11.42,6,14.13,13.23,1.73,4.61,1.77,9.68,2.47,14.2.48,3.12-1.96,7.24-4.61,8.9-.48.3-1.09.27-1.61.5-.18.08-1.21-.08-1.52-.14-3.41-.74-5.15-.52-8.34-2.83-7.5-5.4-2.62-14.17-12.17-19.93-6.32-3.81-14.28-6.15-21.16-7.66-.16-.03-4.16-.75-6.05-1.55-3.23-1.36-5.51-1.5-9.1-2.38-4.17-1.02-32.58-8.32-33.64-8.53-6.84-1.34-20.97-6.47-21.28-6.54-7.19-1.65-15.88-.39-22.45,2.55-8.29,3.7-13.16,9.95-20.76,14.99-1.69,1.12-7.66,3.94-7.83,4.12-.09.09-3.28,1.6-4.26,1.94-2.69.93-5.83,2.3-8.74,2.67-18.09,2.32-20.95.89-22.58.75-9.05-.77-18.26-1.57-27.31-3.09-.68-.11-2.1.01-2.32.04-1.09.15-6.62-.42-6.83-.43-.66-.03-3.8,1.47-4.54,1.93-8.38,5.26-13.69,16.03-19.73,23.79-5.45,7.01-10.04,12.22-18.84,14.79-2.39.7-6.13.92-8.12-.64-2.56-2.01-1.86-4.03-2.55-6.51-.09-.32-.7-.25-.76-.52-.48-2.38,4.13-9.96,6.1-11.74,7.22-.68,11.45-8.6,14.98-14.27,2.75-4.41,5.45-9.28,7.7-13.96,3.18-6.59,4.87-15.12,11.39-18.83.23-.13.28-.72.74-.91.16-.07,3.19-.44,3.42-.44,1.29,0,3.16.52,4.52.72,3.46.5,6.84,1.76,10.44,2.49,19.07,3.88,32.57.44,33.86-21.32.05-.89-.43-1.73-.42-2.64,0-2.95,2.5-7.9,3.29-10.83.16-.58.73-1.81.87-2.57.05-.29.08-1.88-.21-2.01-1.69-.77-18.82.89-21.58,1.17-10.3,1.03-19.59-1.56-20.11-1.64s-3.81-.85-5.27-1.45C20.24,207.3-1.71,168.67.1,127.52c.1-2.22.26-7.39.4-9.09.32-3.82,1.51-5.75,2.11-8.91,3.67-19.24,12.94-37.13,24.44-53.36,6.65-9.38,15.04-18.33,20.51-28.33,4.02-7.35,6.23-13.4,7.12-21.68.21-1.94-.49-4.62,1.07-6.15.75.05,2.78,5.03,3.14,5.97,4.13,10.86,6.11,23.86,6.5,35.23.65,18.79-8.07,38.15-9.07,56.28-.11,1.91-.31,5.84-.38,6.15-.1.47-.46,4.49-.38,4.8.06.29.03,1.63-.04,2.33-.12,1.17.41,2.1.43,3.08,1.01,36.8,23.1,66.56,58.96,75.94,18.86,4.93,37.91,1.89,57.14,2.92,6.47.34,13.17.92,19.08,2.27s15.87,1.75,21.99,1.57c.29,0,.51-.4,2.3-.46,8.83-.25,20.06-5.31,27.16-10.41,10.81-7.76,17.57-20.16,27.91-29.08,5.38-4.64,12.36-8.53,17.43-12.92.33-.28.84-2.86,2.15-.78-5.54,4.21-13.33,11.13-18.8,15.97-12.67,11.22-16.52,24.36-32.25,33.12-29.39,16.37-53.44,1.97-83.5,4.68-19.75,1.78-40.66,14.05-48.59,32.75-4.4,10.37-.88,23.46-8.22,31.69-7.93,8.89-20.93,8.73-31.74,6.84.36,2.22,2.57,2.62,3.99,3.8,1.89,1.56,4.47,3.73,6.14,5.46.85.89,2.1,3.32,2.9,3.94.13.1,2.66,1.51,2.82,1.54,4.88.89,12.24.68,17.41.85,19.97.67,41.01-4.09,52.04-22.46,2.1-3.49,6.3-13.42,6.3-17.26v-5.51c.31.05,1.02-.09,1.13,0,.7.56,1.23,9.76,1.14,11.21-.15,2.57-1.51,6.69-1.44,8.84.01.47.16.58.5.85,2.16-.75,4.38-1.92,6.56-2.56,10.11-2.94,19.96-.04,30.2-1.73,9.15-1.51,17.46-5.54,23.85-12.26l5.71-7.78c-1.04,2.4-2.53,4.61-3.31,7.14-1.43,4.64-1.7,10.74-.39,15.37.15.53,1.27,3.75,1.41,3.91.11.12,2.51,1.65,2.78,1.78,3.84,1.81,10.94.76,15.27,1.07,7.17.51,14.21,3.25,20.33,6.84.15-3.17-3.19-3.8-4.58-5.14-.45-.43.64-1.21-1.11-.94-.35-1.52.75-1.08,1.71-1.9,8.76-7.39,21.98-28.63,22.2-40.16.06-2.92-2.59-11.47-4.53-13.62-2.44-2.7-7.59-3.49-11.02-2.86l.36-1.35,9.14-9.67c-2.52-.48-12.53,0-14.06-1.53-.55-.55.04-.69.56-.76,1.76-.22,3.88.16,5.7,0,3.12-.27,6.19-1.27,9.31-1.52-.82-1.22-2.81-.31-4.32-.42-1.91-.14-4.88-.94-6.7-1.67l13.3-3.99-6.93-1.23c-1.39-1.08-6.3-.76-5.39-2.95,4.88.44,9.41-1.61,14.22-1.9l-5.72-.93c-.88-.36-8.7-1.78-5.09-2.85,1.65-.49,4.02-.48,5.87-.97,2.07-.54,3.97-1.67,6.08-2.1.09-.66-.87-.36-1.32-.38-1.65-.05-4.81.62-5.13-1.52,3.63-.27,7.57-1.03,11.1-2.01,6.29-1.75,10.61-5.31,17.42-3.9.76.16,6.19,1.59,4.92,2.87-.05.05-1.03.01-1.51.19-2.07.75-3.95,1.91-6.09,2.48-.09.12.22.49.37.57.68.34,5.17-.54,6.32-.54,3.04,0,6.56.68,9.29,2.04.43.47,3.31,1.67,3.02,2.29-.24.51-.82.54-1.31.6-4.44.47-9.83.64-14.07,2.27-.58.22-1.16.47-1.34,1.13,4.74.18,9.53-.23,14.27-.01,7.04.32,15.82,1.24,22.17,4.43s11.24,9.5,17.99,11.66c4.3,1.38,9.06,1.6,13.38,2.88,1.41-1.84,2.15-3.1,4.79-2.61ZM48.35,81.71c-1.08-.21-.61.29-.86.83-14.19,30.89-9.81,64.42,6.88,93.3l5.76,8.86c-.73.63-3-1.41-3.6-1.91-20.38-16.83-34.16-50.28-31.36-76.57.49-4.61,2.14-9.27,2.27-13.88-1.08-.19-.62.26-.85.83-11.07,27.78-4.38,65.86,13.23,89.6,1.39,1.88,3.47,3.42,4.35,5.53-.43.46-1.65-.37-2.03-.63-.92-.62-2.41-1.98-3.3-2.78-12.6-11.2-20.95-25.77-25.47-42-.99-.14-.78.11-.72.91.18,2.3,1.08,6.67,1.58,9.07,2.28,10.82,6.61,20.95,11.69,30.69l.56-.76c13.58,15.02,32.07,24.57,52.46,26.22,15.31,1.24,36.87-2.68,51.5-7.79,1.96-.68,3.89-2.27,5.7-3.04,1.14-.48,5.86-1.49,6.08-1.72.2-.2.07-1.03-.57-.77-7.66.4-15.47.81-23.13-.03-45.15-4.94-77.72-46.49-75.11-91.36.46-7.86,2.86-15.11,4.94-22.62ZM299.2,185.85c-1.47.66-3.72.78-4.93,2.47,1.43-.35,4.51-.68,4.93-2.09,3.08-.83,6.22-1.49,9.31-2.28.53-.13,1.18,0,1.33-.76-3.76-1.17-7.34,1.19-10.64,2.66ZM306.04,193.83c13.56-1.71,24.86-3.01,37.58,3.65,4.96,2.6,9.08,6.96,14.79,8.39,3.81.96,6.57.19,10.34-.27.2-2.02-.5-.76-.95-.76h-7.6c-4.49,0-13.35-7.27-17.53-9.45-7.75-4.04-16.27-4.32-24.72-4.85-1.94-.12-2.15-.45-2.95-.55-2.67-.35-11.37.03-13.97.83-.07.02-1.08.84-1.06,1.1,1.3-.22,2.69-.63,3.99-.75,1.44-.13,3.98-.37,5.36-.34.45,0,2,.07,2.05.71-2.02.35-4.2.94-6.09,1.71-.69.28-1.02.91-1.13.95-.63.29-4.37,1.48-4.56,2.09-.26.8.3.55.79.4,1.49-.46,2.64-1.51,3.78-2.12.62-.33.97-.25,1.52-.38.17-.04.31-.22.38-.38ZM321.81,196.49c-1.16-.29-4.59,0-6.08,0-.62,0-4.55,1.14-5.39,1.45-4.28,1.59-7.8,5.5-8.86,9.95,4.96-5.6,10.66-8.92,18.09-10.22.8-.14,2.16.22,2.62-.42.36-.2-.28-.74-.38-.76Z"/>
          <path class="cls-3" d="M48.35,81.71c-2.07,7.5-4.48,14.75-4.94,22.62-2.61,44.86,29.96,86.42,75.11,91.36,7.66.84,15.47.43,23.13.03.64-.26.78.57.57.77-.22.22-4.94,1.23-6.08,1.72-1.81.77-3.74,2.36-5.7,3.04-14.63,5.11-36.18,9.03-51.5,7.79-20.39-1.65-38.88-11.2-52.46-26.22l-.56.76c-5.08-9.74-9.41-19.87-11.69-30.69-.51-2.39-1.4-6.77-1.58-9.07-.06-.8-.27-1.04.72-.91,4.52,16.23,12.87,30.81,25.47,42,.9.8,2.38,2.16,3.3,2.78.38.26,1.6,1.1,2.03.63-.88-2.11-2.96-3.65-4.35-5.53-17.61-23.73-24.3-61.81-13.23-89.6.23-.58-.22-1.03.85-.83-.13,4.6-1.78,9.27-2.27,13.88-2.8,26.29,10.98,59.74,31.36,76.57.6.5,2.87,2.54,3.6,1.91l-5.76-8.86c-16.69-28.88-21.07-62.41-6.88-93.3.25-.54-.22-1.04.86-.83Z"/>
        </g>
      </g>
      <path class="cls-3" d="M330.36,134.54c-1.21-.21-.68.61-.75,1.33-.18,1.81-1.01,6.03-.56,7.4.32.98,1.66,2.54,2.22,3.48.28.46.24,1.14.59,1.68.92,1.44,2.04.53,2.32.73.43.3,1.16,3.79,2.29,1.2.12-.29.73-2.68.73-2.89.73.12,2.21,1.34,2.66,1.9,2.37,2.96,8.16,12.89,9.95,16.47,1.36,2.72,1.35,6.03,2.41,8.62,2.39,5.84,17.79,16.62,23.37,20.53-2.64-.49-3.37.78-4.79,2.61-4.32-1.28-9.08-1.5-13.38-2.88-6.74-2.16-11.69-8.5-17.99-11.66s-15.14-4.11-22.17-4.43c-4.73-.22-9.53.19-14.27.01.18-.66.76-.91,1.34-1.13,4.24-1.63,9.64-1.8,14.07-2.27.49-.05,1.07-.08,1.31-.6.28-.62-2.59-1.82-3.02-2.29-2.73-1.36-6.25-2.04-9.29-2.04-1.15,0-5.64.88-6.32.54-.16-.08-.47-.45-.37-.57,2.14-.56,4.02-1.73,6.09-2.48.49-.18,1.46-.14,1.51-.19,1.27-1.28-4.16-2.71-4.92-2.87-6.81-1.41-11.13,2.16-17.42,3.9-3.53.98-7.47,1.74-11.1,2.01.33,2.14,3.48,1.46,5.13,1.52.46.02,1.41-.28,1.32.38-2.11.43-4,1.56-6.08,2.1-1.86.48-4.22.48-5.87.97-3.61,1.07,4.21,2.49,5.09,2.85l5.72.93c-4.81.29-9.34,2.34-14.22,1.9-.92,2.19,3.99,1.87,5.39,2.95l6.93,1.23-13.3,3.99c1.82.74,4.79,1.53,6.7,1.67,1.51.11,3.5-.8,4.32.42-3.13.25-6.19,1.24-9.31,1.52-1.83.16-3.94-.22-5.7,0-.53.07-1.11.21-.56.76,1.53,1.53,11.54,1.05,14.06,1.53l-9.14,9.67-.36,1.35c3.43-.63,8.58.15,11.02,2.86,1.94,2.15,4.59,10.7,4.53,13.62-.22,11.53-13.44,32.77-22.2,40.16-.96.81-2.07.38-1.71,1.9,1.76-.27.66.51,1.11.94,1.39,1.34,4.73,1.97,4.58,5.14-6.13-3.59-13.16-6.32-20.33-6.84-4.34-.31-11.44.74-15.27-1.07-.27-.13-2.67-1.66-2.78-1.78-.14-.15-1.26-3.38-1.41-3.91-1.31-4.64-1.04-10.73.39-15.37.78-2.53,2.27-4.74,3.31-7.14l-5.71,7.78c-6.38,6.72-14.7,10.75-23.85,12.26-10.24,1.69-20.08-1.21-30.2,1.73-2.18.63-4.4,1.81-6.56,2.56-.35-.28-.49-.38-.5-.85-.06-2.15,1.29-6.27,1.44-8.84.09-1.45-.45-10.65-1.14-11.21-.11-.09-.82.05-1.13,0v5.51c0,3.84-4.21,13.77-6.3,17.26-11.03,18.37-32.07,23.13-52.04,22.46-5.17-.17-12.53.04-17.41-.85-.16-.03-2.69-1.44-2.82-1.54-.8-.62-2.04-3.05-2.9-3.94-1.67-1.73-4.24-3.89-6.14-5.46-1.42-1.17-3.63-1.58-3.99-3.8,10.81,1.89,23.81,2.05,31.74-6.84,7.34-8.23,3.82-21.31,8.22-31.69,7.93-18.7,28.83-30.97,48.59-32.75,30.06-2.7,54.11,11.69,83.5-4.68,15.73-8.76,19.58-21.9,32.25-33.12,5.47-4.84,13.26-11.76,18.8-15.97.08-.06,1.19-.26,1.9-.76,1.1-.16.88.4.55,1.12-.68,1.49-1.92,3.02-2.66,4.57-2.45,5.18-4.58,10.87-6.26,16.35,5.06-1.27,9.55-4.37,14.53-5.8s10.69-.72,15.12-4.27c2.31-1.86,3.92-4.44,4.18-7.42,6.32,2.68,8.93-1.81,10.45-7.22.66-2.35.62-5.31,1.33-7.6.84.64.84,1.77,1.14,2.66ZM345.95,178.63c.73.08,1.47.52,2.28.38-.23-2.43-1.43-4.9-2.88-6.81-1.76-2.3-3.83-4.66-6.81-4.98s-7.36-.37-10.17.1c-.69.12-1.93.26-2.19,1.04,2.45.53,4.8.27,7.24.95.39.11.62.53.74.58-2.06.21.12.98.38,1.31,1.64,2.07,3.54,5.54,6.08,6.48,1.59.59,3.81.77,5.32.95Z"/>
    </g>
  </g>
</svg>