<?xml version="1.0" encoding="utf-8"?>
<!-- Generator: Adobe Illustrator 27.5.0, SVG Export Plug-In . SVG Version: 6.00 Build 0)  -->
<svg version="1.1" id="Capa_1" xmlns="http://www.w3.org/2000/svg" xmlns:xlink="http://www.w3.org/1999/xlink" x="0px" y="0px"
	 viewBox="0 0 2021 2228" style="enable-background:new 0 0 2021 2228;" xml:space="preserve">
<path style="fill:#FECB4A;" d="M1395.295,556.216c-0.169-0.159-0.409-0.22-0.624-0.148c-48.091,13.566-161.281,41.287-173.574,5.849
	c-3.775-10.888,5.56-50.006,24.974-104.64c0.113-0.322-0.041-0.675-0.348-0.816l-2.732-1.241c-1.821-0.829-3.642-1.655-5.468-2.476
	c-0.174-0.08-0.389-0.074-0.563,0.015c-0.179,0.09-0.302,0.253-0.343,0.448c-10.62,50.185-27.409,112.254-39.773,122.017
	c-31.302,24.736-121.61-73.689-148.543-104.445c-44.745-51.091-70.89-119.344-71.74-187.252
	c-0.133-10.679,0.414-21.886,1.627-33.315c0.041-0.353-0.209-0.67-0.563-0.719c-3.714-0.499-7.223-0.742-10.753-0.742l-0.23,0.013
	l-0.287-0.013c-0.966-0.026-1.928-0.038-2.885-0.038c-50.51,0-83.674,34.831-115.768,68.532
	c-6.266,6.586-12.753,13.395-19.209,19.761c-47.088,46.42-100.872,82.039-152.886,116.485
	c-28.524,18.886-58.015,38.417-86.477,59.715c-69.765,52.211-122.301,105.589-160.606,163.184
	c-93.664,140.837-143.177,317.592-143.177,511.157c0,83.643,10.405,166.667,30.928,246.765
	c21.152,82.569,52.587,160.048,93.429,230.284c51.058,87.797,116.183,160.769,183.375,205.473
	c27.644,18.391,57.529,34.023,86.431,49.14c29.706,15.536,60.414,31.598,88.646,50.643c21.214,14.308,40.899,34.141,61.734,55.135
	c40.289,40.601,81.955,82.589,137.033,84.339c1.039,0.03,2.077,0.051,3.116,0.051c37.251,0,76.676-21.106,120.403-64.419
	c66.466-65.831,138.205-119.349,205.985-168.524c57.073-41.41,122.367-92.58,173.885-158.156
	c66.982-85.255,118.188-189.16,148.083-300.488c60.056-223.654,35.057-464.112-68.588-659.711
	C1509.155,681.358,1457.166,613.44,1395.295,556.216z"/>
<path style="fill:#8BC47E;" d="M1610.232,239.074c-0.527-4.118-1.258-8.402-3.883-11.577c-3.657-4.41-9.781-5.453-15.229-6.085
	c-58.388-6.781-120.587,3.153-175.185,27.959c-56.848,25.826-102.586,65.657-132.276,115.18
	c-8.727,14.556-24.693,52.505-38.826,92.285c-9.367,26.365-30.555,89.424-24.974,105.509c4.619,13.308,22.728,18.055,46.229,18.055
	c40.919,0,98.166-14.397,128.941-23.076c3.044-0.859,5.709-1.624,7.842-2.243c65.504-19.07,124.536-62.723,161.966-119.761
	C1602.262,378.284,1618.805,306.754,1610.232,239.074z"/>
<path style="fill:#8BC47E;" d="M1250.327,375.207c1.632-57.715-15.49-115.901-49.503-168.263
	c-32.672-50.29-79.765-92.14-132.608-117.84c-4.937-2.402-10.656-4.821-16.109-3.067c-3.934,1.266-6.855,4.481-9.505,7.668
	c-36.325,43.627-59.662,99.161-65.713,156.37c-1.217,11.479-1.77,22.738-1.637,33.468c0.854,68.218,27.117,136.778,72.067,188.102
	c30.652,35.005,99.773,108.868,137.177,108.862c5.008-0.003,9.453-1.33,13.157-4.253c12.64-9.981,29.578-72.377,40.243-122.774
	C1245.063,419.601,1249.943,388.878,1250.327,375.207z"/>
<path style="fill:#57B253;" d="M1052.174,377.191c-3.637-8.23-6.062-14.758-7.459-18.786c-0.752-2.167-1.279-3.813-1.606-4.89
	l-0.414-1.412c-0.01-0.036-0.021-0.074-0.036-0.107c-2.006-7.259-9.551-11.569-16.81-9.61c-3.55,0.954-6.517,3.23-8.349,6.412
	c-1.837,3.182-2.322,6.888-1.366,10.451c0.491,1.795,12.471,44.604,50.439,97.662c2.68,3.744,6.911,5.74,11.198,5.74
	c2.773,0,5.571-0.831,7.985-2.563c6.164-4.412,7.591-13.016,3.182-19.186C1070.349,414.941,1058.686,391.927,1052.174,377.191z"/>
<path style="fill:#57B253;" d="M1490.314,462.065c-3.673,0-7.126,1.43-9.724,4.026c-9.28,9.288-21.695,18.232-36.908,26.583
	c-21.92,12.073-45.707,20.7-61.8,25.81c-9.116,2.903-16.799,5.008-21.638,6.264c-2.634,0.685-4.701,1.187-6.093,1.517
	c-0.005,0-0.005,0-0.005,0l-2.02,0.468c-3.591,0.777-6.661,2.911-8.645,5.998c-1.99,3.09-2.65,6.768-1.872,10.357
	c0.777,3.591,2.91,6.66,6,8.647c2.235,1.44,4.783,2.184,7.402,2.184c0.992,0,2-0.107,2.997-0.325
	c2.466-0.542,24.872-5.609,52.7-15.958c17.019-6.335,32.575-13.357,46.233-20.866c17.715-9.758,31.813-19.973,43.088-31.227
	c5.366-5.358,5.366-14.083,0.01-19.447C1497.441,463.497,1493.987,462.068,1490.314,462.065z"/>
<path style="fill:#57B253;" d="M1527.412,235.641c-0.057,0-0.118,0.003-0.174,0.003l-0.394,0.012
	c-11.208,0.343-50.96,2.954-91.756,22.173c-3.32,1.57-5.827,4.34-7.065,7.801c-1.233,3.458-1.049,7.19,0.522,10.512
	c2.348,4.957,7.3,7.863,12.451,7.863c1.97,0,3.964-0.425,5.862-1.322c20.754-9.838,41.743-14.631,55.698-16.917
	c7.929-1.307,14.426-1.954,18.482-2.267c2.205-0.169,3.913-0.261,5.039-0.309l1.555-0.051c7.571-0.102,13.658-6.343,13.566-13.914
	C1541.106,241.7,1534.957,235.641,1527.412,235.641z"/>
<path style="fill:#57B253;" d="M1094.597,118.293c-13.088-7.545-22.681-10.815-23.289-11.024c-6.853-2.313-14.283,1.368-16.596,8.22
	c-2.309,6.842,1.357,14.255,8.189,16.581l-0.001,0.004c0.002,0.001,0.481,0.165,1.411,0.524c3.254,1.258,11.787,4.851,21.979,11.261
	c10.201,6.407,22.026,15.621,32.094,27.976c4.571,5.605,12.82,6.443,18.426,1.872c5.604-4.571,6.442-12.821,1.872-18.426
	C1124.304,137.677,1107.672,125.845,1094.597,118.293z M1062.932,132.084L1062.932,132.084
	C1062.932,132.084,1062.932,132.084,1062.932,132.084L1062.932,132.084z"/>
<path style="fill:#FFD86C;" d="M798.471,620.517c-6.271-25.398-20.651-47.234-40.484-61.488
	c-48.474-34.823-109.747-18.372-146.159,11.664c-31.399,25.892-56.45,72.011-32.606,123.789
	c4.665,10.129,10.809,19.46,18.273,27.731c19.163,21.242,46.494,34.933,76.962,38.558c5.249,0.624,10.466,0.933,15.633,0.933
	c25.02,0,48.705-7.251,67.939-21.006C793.673,715.208,809.925,666.909,798.471,620.517z"/>
<path style="fill:#FFD86C;" d="M709.851,808.874c-33.829-24.306-76.594-12.83-102.013,8.131
	c-21.915,18.075-39.405,50.272-22.754,86.426c3.253,7.077,7.545,13.589,12.753,19.357c16.201,17.958,40.525,27.422,64.542,27.422
	c16.978,0,33.803-4.727,47.497-14.523c24.886-17.794,36.233-51.508,28.237-83.886C733.735,834.068,723.693,818.821,709.851,808.874z
	"/>
<path style="fill:#FFD86C;" d="M979.743,766.206c-5.376-21.784-17.705-40.512-34.719-52.733
	c-41.573-29.864-94.115-15.753-125.34,9.996c-26.923,22.206-48.408,61.76-27.956,106.169c3.995,8.686,9.27,16.689,15.669,23.782
	c19.905,22.066,49.789,33.696,79.3,33.696c20.856,0,41.528-5.809,58.357-17.845C975.631,847.409,989.57,805.989,979.743,766.206z"/>
<path style="fill:#FFD86C;" d="M1134.692,1641.173c-21.414,10.681-38.74,29.552-48.786,53.139
	c-18.344,43.077-10.185,92.339,20.303,122.582c19.848,19.684,47.441,31.23,77.694,32.504c1.867,0.077,3.724,0.117,5.581,0.117
	c27.981,0,54.398-8.911,74.896-25.368c8.517-6.829,15.924-14.891,22.017-23.961c31.174-46.351,14.16-94.882-12.154-124.849
	C1243.723,1640.59,1187.023,1615.095,1134.692,1641.173z"/>
<path style="fill:#FFD86C;" d="M965.446,1793.113c-15.771,7.868-28.524,21.757-35.91,39.108
	c-13.495,31.695-7.489,67.948,14.947,90.206c15.945,15.812,38.596,23.874,61.309,23.874c19.777,0,39.594-6.113,55.073-18.534
	c6.266-5.033,11.719-10.968,16.201-17.638c22.948-34.115,10.43-69.831-8.937-91.884
	C1045.677,1792.674,1003.965,1773.895,965.446,1793.113z"/>
<path style="fill:#D33022;" d="M1349.061,1444.197c-38.586,0-69.98,31.389-69.98,69.975c0,38.586,31.394,69.979,69.98,69.979
	c38.586,0,69.975-31.393,69.975-69.979C1419.035,1475.586,1387.647,1444.197,1349.061,1444.197z"/>
<path style="fill:#D33022;" d="M586.649,1444.197c-38.586,0-69.975,31.389-69.975,69.975c0,38.586,31.389,69.979,69.975,69.979
	c38.587,0,69.98-31.393,69.98-69.979C656.629,1475.586,625.236,1444.197,586.649,1444.197z"/>
<path style="fill:#4E221F;" d="M1261.136,1447.649c23.689,0,42.965-26.646,42.965-59.396c0-32.75-19.275-59.396-42.965-59.396
	c-23.69,0-42.96,26.646-42.96,59.396C1218.176,1421.003,1237.446,1447.649,1261.136,1447.649z"/>
<path style="fill:#4E221F;" d="M674.574,1441.081c23.69,0,42.96-26.647,42.96-59.396c0-32.75-19.27-59.396-42.96-59.396
	s-42.965,26.646-42.965,59.396C631.61,1414.435,650.884,1441.081,674.574,1441.081z"/>
<path style="fill:#4E221F;" d="M967.824,1522.684h0.061c42.233,0,81.833-19.086,111.497-53.743
	c29.383-34.289,45.563-79.786,45.569-128.117c0-8.523-0.511-17.086-1.524-25.449c-0.271-2.261-1.407-4.276-3.197-5.684
	c-1.79-1.401-4.01-2.026-6.271-1.75c-2.261,0.271-4.276,1.407-5.683,3.197c-1.402,1.791-2.026,4.021-1.75,6.276
	c0.931,7.704,1.402,15.582,1.402,23.409c0.01,44.27-14.717,85.833-41.466,117.037c-26.452,30.815-61.473,47.788-98.606,47.799
	c-37.133-0.01-72.154-16.984-98.606-47.799c-26.749-31.2-41.477-72.763-41.466-117.037c0-7.407,0.42-14.866,1.253-22.17
	c0.532-4.66-2.829-8.886-7.489-9.423c-2.318-0.256-4.486,0.379-6.261,1.796c-1.78,1.412-2.906,3.438-3.161,5.693
	c-0.906,7.914-1.366,16.022-1.366,24.104c0.005,48.331,16.186,93.828,45.569,128.117
	C885.992,1503.598,925.586,1522.684,967.824,1522.684z"/>
<path style="fill:#F6AE01;" d="M1526.829,817.908c-3.75-6.583-12.164-8.898-18.753-5.143c-6.589,3.755-8.896,12.167-5.141,18.753
	l0.567-0.324l0,0l-0.536,0.375c0.803,1.43,19.991,35.665,38.842,88.623c17.009,47.742,37.276,121.278,37.256,200.476
	c0,13.459-0.588,26.876-1.739,39.88c-0.675,7.545,4.926,14.236,12.482,14.911c0.414,0.041,0.829,0.057,1.238,0.057
	c3.218,0,6.302-1.115,8.799-3.207c2.819-2.353,4.548-5.668,4.87-9.331c1.228-13.806,1.852-28.043,1.852-42.31
	c-0.015-67.57-13.403-139.001-39.783-212.3C1547.818,855.722,1528.952,821.676,1526.829,817.908z"/>
<path style="fill:#F6AE01;" d="M353.818,985.612c-3.581-0.85-7.259-0.263-10.395,1.665c-3.126,1.926-5.315,4.952-6.169,8.54
	l-0.041,0.177c-1.688,7.299-16.497,73.576-16.523,151.111c0.005,30.35,2.297,58.777,6.803,84.483
	c1.171,6.665,6.993,11.377,13.541,11.377c0.783,0,1.58-0.072,2.379-0.21c3.622-0.634,6.772-2.645,8.886-5.647
	c2.107-3.008,2.916-6.655,2.281-10.272c-4.241-24.14-6.389-50.966-6.389-79.73c0-40.532,4.317-77.878,7.944-102.069
	c2.061-13.761,4.103-24.718,5.453-31.488c0.737-3.719,1.35-6.599,1.775-8.53c0.215-0.964,0.378-1.693,0.491-2.174l0.154-0.673
	c0.849-3.571,0.261-7.261-1.667-10.39C360.417,988.653,357.389,986.464,353.818,985.612z"/>
<path style="fill:#F6AE01;" d="M757.01,1900.421c-16.078-10.287-31.097-17.178-45.62-23.848c-4.184-1.919-8.333-3.821-12.451-5.786
	c-20.074-9.546-37.579-19.419-57.77-36.56c-2.798-2.379-6.333-3.54-10.016-3.228c-3.662,0.297-6.987,2-9.371,4.798
	c-4.901,5.78-4.195,14.477,1.576,19.382c13.822,11.76,28.165,21.679,43.845,30.314c11.581,6.369,22.452,11.361,32.964,16.185
	c8.282,3.806,16.109,7.402,23.961,11.5c15.413,8.052,34.232,19.367,56.925,42.264c2.686,2.717,6.236,4.072,9.781,4.072
	c3.494,0,6.993-1.32,9.668-3.964c2.609-2.583,4.062-6.026,4.078-9.699c0.02-3.673-1.392-7.136-3.975-9.745
	C786.511,1921.849,772.255,1910.176,757.01,1900.421z"/>
<path style="fill:#F6AE01;" d="M1228.059,890.934c-3.427,1.323-6.139,3.901-7.627,7.257c-1.489,3.358-1.581,7.093-0.256,10.52
	c8.911,23.112,13.623,48.536,13.623,73.51c0,8.141-0.491,16.326-1.463,24.324c-0.911,7.527,4.471,14.395,12.001,15.305
	c0.558,0.069,1.11,0.1,1.663,0.1c6.85,0,12.794-5.131,13.638-12.098c1.105-9.088,1.663-18.385,1.663-27.631
	c0-28.713-5.203-56.774-15.469-83.403C1243.104,891.748,1235.144,888.205,1228.059,890.934z"/>
<path style="fill:#F6AE01;" d="M1295.461,921.118c-2.88-2.289-6.502-3.333-10.118-2.898c-7.535,0.857-12.963,7.686-12.104,15.219
	c1.32,11.574,2.087,23.38,2.286,35.087c0.062,3.673,1.545,7.103,4.189,9.656c2.583,2.499,5.965,3.867,9.551,3.867
	c0.077,0,0.159-0.003,0.235-0.003c3.673-0.061,7.105-1.547,9.658-4.19c2.553-2.64,3.923-6.116,3.862-9.789
	c-0.21-12.574-1.039-25.273-2.461-37.744C1300.146,926.674,1298.335,923.405,1295.461,921.118z"/>
</svg>
