<?xml version="1.0" encoding="UTF-8"?>
<svg id="Layer_2" data-name="Layer 2" xmlns="http://www.w3.org/2000/svg" viewBox="0 0 410 472">
  <defs>
    <style>
      .cls-1 {
        opacity: 1;
      }

      .cls-1, .cls-2, .cls-3, .cls-4, .cls-5, .cls-6, .cls-7, .cls-8, .cls-9, .cls-10, .cls-11, .cls-12, .cls-13, .cls-14 {
        fill-rule: evenodd;
      }

      .cls-1, .cls-2, .cls-4, .cls-5, .cls-6, .cls-7, .cls-8, .cls-9, .cls-11, .cls-12, .cls-13, .cls-14 {
        isolation: isolate;
      }

      .cls-1, .cls-13 {
        fill: #2e75ae;
      }

      .cls-2 {
        fill: #357cb7;
        opacity: .49;
      }

      .cls-3, .cls-7 {
        fill: #2295f2;
      }

      .cls-4 {
        fill: #2195f2;
      }

      .cls-4, .cls-7, .cls-13 {
        opacity: 1;
      }

      .cls-5 {
        fill: #3a82c2;
        opacity: .6;
      }

      .cls-6 {
        fill: #4786bf;
      }

      .cls-6, .cls-12 {
        opacity: .16;
      }

      .cls-8 {
        fill: #377db8;
        opacity: .2;
      }

      .cls-9 {
        fill: #307bb8;
        opacity: .68;
      }

      .cls-10 {
        fill: #2a82c9;
      }

      .cls-11 {
        fill: #3a7eba;
        opacity: .14;
      }

      .cls-12 {
        fill: #307ab5;
      }

      .cls-14 {
        fill: #3c7fbb;
        opacity: .03;
      }
    </style>
  </defs>
  <g id="Layer_1-2" data-name="Layer 1" image-rendering="optimizeQuality" shape-rendering="geometricPrecision" text-rendering="geometricPrecision">
    <path class="cls-4" d="M410,77c-39.68,24.84-79.02,50.17-118,76-5.21,2.22-9.88,5.22-14,9-.47,1.41-1.47,2.07-3,2-5.21,2.22-9.88,5.22-14,9-5.21,2.22-9.88,5.22-14,9-.47,1.41-1.47,2.07-3,2-4.18,1.59-7.85,3.92-11,7-.47,1.41-1.47,2.07-3,2-4.18,1.59-7.85,3.92-11,7-.47,1.41-1.47,2.07-3,2-3.77,1.72-7.44,3.72-11,6-.67-68.83-1.33-137.5-2-206-1.55-1.39-1.22-2.06,1-2,69.1,24.92,137.77,50.58,206,77Z"/>
    <path class="cls-13" d="M203,2v206C135.05,165.02,67.38,121.52,0,77.5,67.47,51.85,135.13,26.68,203,2Z"/>
    <path class="cls-10" d="M203,2c.67,68.5,1.33,137.17,2,206,3.56-2.28,7.23-4.28,11-6-3.59,3.14-7.59,5.81-12,8-.8-.46-1.13-1.12-1-2V2Z"/>
    <path class="cls-2" d="M410,77c-38.64,26.33-77.98,51.66-118,76,38.98-25.83,78.32-51.16,118-76Z"/>
    <path class="cls-9" d="M292,153c-4.12,3.78-8.79,6.78-14,9,4.12-3.78,8.79-6.78,14-9Z"/>
    <path class="cls-1" d="M207,228c-.71.9-1.71,1.24-3,1v122c-60.13-49.62-120.13-99.46-180-149.5,24.51-13.09,49.18-25.92,74-38.5,33.33,22,66.99,43.5,101,64.5,2.65.5,5.31.66,8,.5Z"/>
    <path class="cls-3" d="M322,169c8.52,5.43,17.52,10.1,27,14,11.77,5.38,23.43,11.05,35,17,1.33,1,1.33,2,0,3-59.93,49.55-119.76,99.21-179.5,149-.4-.23-.57-.56-.5-1v-122c1.29.24,2.29-.1,3-1,3.19-.59,6.19-1.76,9-3.5,31.83-20.5,63.67-41,95.5-61.5,3.64,1.9,7.14,3.9,10.5,6Z"/>
    <path class="cls-14" d="M275,164c-4.12,3.78-8.79,6.78-14,9,4.12-3.78,8.79-6.78,14-9Z"/>
    <path class="cls-5" d="M322,169c9.48,3.9,18.48,8.57,27,14-9.48-3.9-18.48-8.57-27-14Z"/>
    <path class="cls-11" d="M261,173c-4.12,3.78-8.79,6.78-14,9,4.12-3.78,8.79-6.78,14-9Z"/>
    <path class="cls-8" d="M244,184c-3.15,3.08-6.82,5.41-11,7,3.15-3.08,6.82-5.41,11-7Z"/>
    <path class="cls-6" d="M230,193c-3.15,3.08-6.82,5.41-11,7,3.15-3.08,6.82-5.41,11-7Z"/>
    <path class="cls-1" d="M204,370c.83,33.26,1.33,66.6,1.5,100,13.09-13.59,26.59-26.59,40.5-39-13.13,13.63-26.46,27.13-40,40.5-.67.67-1.33.67-2,0-52.17-51.5-104.33-103-156.5-154.5-.62-.95-.45-1.78.5-2.5,14.5-9.08,28.84-18.42,43-28,1.54-1.19,3.21-1.52,5-1,32,26.67,64,53.33,96,80,3.49,2.91,7.49,4.41,12,4.5Z"/>
    <path class="cls-7" d="M356,321c-25.67,24.67-50.34,49.67-74,75-11.57,12.12-23.57,23.78-36,35-13.91,12.41-27.41,25.41-40.5,39-.17-33.4-.67-66.74-1.5-100,5.21-.44,9.88-2.27,14-5.5,29.89-25.52,60.06-50.69,90.5-75.5,16.16,10.32,31.99,20.98,47.5,32Z"/>
    <path class="cls-12" d="M356,321c-23.66,25.33-48.33,50.33-74,75,23.66-25.33,48.33-50.33,74-75Z"/>
  </g>
</svg>