<svg clip-rule="evenodd" fill-rule="evenodd" height="512" image-rendering="optimizeQuality" shape-rendering="geometricPrecision" text-rendering="geometricPrecision" width="512" xmlns="http://www.w3.org/2000/svg"><path d="m461.5 96.5c-39.681 24.838-79.015 50.171-118 76-5.209 2.219-9.876 5.219-14 9-.473 1.406-1.473 2.073-3 2-5.209 2.219-9.876 5.219-14 9-5.209 2.219-9.876 5.219-14 9-.473 1.406-1.473 2.073-3 2-4.183 1.587-7.85 3.921-11 7-.473 1.406-1.473 2.073-3 2-4.183 1.587-7.85 3.921-11 7-.473 1.406-1.473 2.073-3 2-3.773 1.721-7.439 3.721-11 6-.667-68.832-1.333-137.4988-2-206-1.554-1.3946-1.221-2.0613 1-2 69.103 24.9177 137.77 50.5843 206 77z" fill="#2195f2" opacity=".999"/><path d="m254.5 21.5v206c-67.95-42.98-135.616-86.48-203-130.5 67.469-25.6567 135.135-50.8234 203-75.5z" fill="#2e75ae" opacity=".999"/><path d="m254.5 21.5c.667 68.5012 1.333 137.168 2 206 3.561-2.279 7.227-4.279 11-6-3.59 3.139-7.59 5.806-12 8-.798-.457-1.131-1.124-1-2 0-68.667 0-137.3333 0-206z" fill="#2a82c9"/><path d="m461.5 96.5c-38.645 26.328-77.979 51.661-118 76 38.985-25.829 78.319-51.162 118-76z" fill="#357cb7" opacity=".486"/><path d="m343.5 172.5c-4.124 3.781-8.791 6.781-14 9 4.124-3.781 8.791-6.781 14-9z" fill="#307bb8" opacity=".675"/><path d="m258.5 247.5c-.709.904-1.709 1.237-3 1v122c-60.127-49.622-120.127-99.455-180-149.5 24.509-13.088 49.176-25.922 74-38.5 33.328 21.999 66.994 43.499 101 64.5 2.646.497 5.313.664 8 .5z" fill="#2e75ae" opacity=".998"/><path d="m373.5 188.5c8.521 5.428 17.521 10.095 27 14 11.767 5.383 23.434 11.05 35 17 1.333 1 1.333 2 0 3-59.926 49.547-119.759 99.214-179.5 149-.399-.228-.565-.562-.5-1 0-40.667 0-81.333 0-122 1.291.237 2.291-.096 3-1 3.191-.592 6.191-1.759 9-3.5 31.833-20.5 63.667-41 95.5-61.5 3.644 1.901 7.144 3.901 10.5 6z" fill="#2295f2"/><path d="m326.5 183.5c-4.124 3.781-8.791 6.781-14 9 4.124-3.781 8.791-6.781 14-9z" fill="#3c7fbb" opacity=".031"/><path d="m373.5 188.5c9.479 3.905 18.479 8.572 27 14-9.479-3.905-18.479-8.572-27-14z" fill="#3a82c2" opacity=".6"/><path d="m312.5 192.5c-4.124 3.781-8.791 6.781-14 9 4.124-3.781 8.791-6.781 14-9z" fill="#3a7eba" opacity=".145"/><path d="m295.5 203.5c-3.15 3.079-6.817 5.413-11 7 3.15-3.079 6.817-5.413 11-7z" fill="#377db8" opacity=".204"/><path d="m281.5 212.5c-3.15 3.079-6.817 5.413-11 7 3.15-3.079 6.817-5.413 11-7z" fill="#4786bf" opacity=".157"/><path d="m255.5 389.5c.826 33.262 1.326 66.595 1.5 100 13.086-13.589 26.586-26.589 40.5-39-13.131 13.632-26.465 27.132-40 40.5-.667.667-1.333.667-2 0-52.167-51.5-104.333-103-156.5-154.5-.6172-.949-.4506-1.782.5-2.5 14.504-9.084 28.837-18.418 43-28 1.544-1.187 3.211-1.52 5-1 32 26.667 64 53.333 96 80 3.487 2.912 7.487 4.412 12 4.5z" fill="#2e75ae" opacity=".998"/><path d="m407.5 340.5c-25.671 24.667-50.338 49.667-74 75-11.573 12.117-23.573 23.784-36 35-13.914 12.411-27.414 25.411-40.5 39-.174-33.405-.674-66.738-1.5-100 5.214-.44 9.881-2.274 14-5.5 29.889-25.524 60.056-50.691 90.5-75.5 16.158 10.318 31.991 20.985 47.5 32z" fill="#2295f2" opacity=".999"/><path d="m407.5 340.5c-23.662 25.333-48.329 50.333-74 75 23.662-25.333 48.329-50.333 74-75z" fill="#307ab5" opacity=".157"/></svg>