<svg id="Layer_2" data-name="Layer 2" xmlns="http://www.w3.org/2000/svg" viewBox="0 0 216.14 312.39">
  <g id="Layer_1-2" data-name="Layer 1">
    <g>
      <path d="M91.38,311.76c-13.86-1.66-31.14-16.97-31.14-31.49v-16.34h95.81v16.34c0,14.52-17.28,29.83-31.14,31.49-7.01.84-26.52.84-33.53,0Z"/>
      <path d="M100.8.29c87.64-6.21,145.47,90.26,98.7,164.72-11.25,17.92-26.1,25.73-30.31,48.66-1.8,9.8,1.84,23.39-10.53,26.16l-98.85.22c-14.77-1.3-10.73-15.02-12.58-25.71-4.44-25.72-21.96-33.52-33.44-54.31C-24.73,90.24,21.65,5.9,100.8.29ZM116.66,51.34c-7-6.99-25.74-1.55-33.8,1.98-14.21,6.23-31.42,24.57-32.96,40.49-1.13,11.66,15.11,17.97,21.88,7.44,3.6-5.59,3.63-11.55,9.25-17.87,9.01-10.16,17.02-9.75,28.93-11.78,9.4-1.6,13.57-13.41,6.7-20.27Z"/>
    </g>
  </g>
</svg>